<svg width="158" height="40" viewBox="0 0 158 40" fill="none" xmlns="http://www.w3.org/2000/svg">
<rect width="153" height="40" rx="4" fill="#37907A"/>
<path d="M60.1562 27H62.4922L63.4375 24.4062H68.0469L68.9922 27H71.3906L67.0703 15.6562H64.5156L60.1562 27ZM64.1797 22.3906L65.7422 18.1016L67.3125 22.3906H64.1797ZM71.9375 23.0469C71.9375 24.25 72.2969 25.2422 73.0156 26.0234C73.7344 26.8047 74.6562 27.1953 75.7734 27.1953C76.2812 27.1953 76.7344 27.0938 77.125 26.8906C77.5156 26.6875 77.7969 26.4141 77.9844 26.0859C77.9844 26.4375 78.0078 26.7422 78.0625 27H80.0938C80.0469 26.5781 80.0312 26.1016 80.0312 25.5781V15.4141H77.9375V19.9141C77.7969 19.6562 77.5391 19.4297 77.1719 19.2344C76.8047 19.0391 76.3203 18.9375 75.7109 18.9375C74.6094 18.9375 73.7031 19.3359 73 20.1172C72.2891 20.9062 71.9375 21.8828 71.9375 23.0469ZM74.0781 23.0469C74.0781 22.3672 74.2578 21.8281 74.6328 21.4375C75 21.0469 75.4688 20.8438 76.0312 20.8438C76.5938 20.8438 77.0547 21.0391 77.4219 21.4297C77.7812 21.8203 77.9688 22.3516 77.9688 23.0312C77.9688 23.7266 77.7812 24.2734 77.4141 24.6797C77.0469 25.0859 76.5859 25.2891 76.0312 25.2891C75.4531 25.2891 74.9844 25.0938 74.625 24.6875C74.2578 24.2812 74.0781 23.7344 74.0781 23.0469ZM82.0859 16.5547C82.0859 16.9141 82.2109 17.2188 82.4688 17.4688C82.7266 17.7266 83.0391 17.8516 83.3984 17.8516C83.7578 17.8516 84.0703 17.7266 84.3281 17.4688C84.5781 17.2188 84.7109 16.9141 84.7109 16.5547C84.7109 16.1875 84.5781 15.875 84.3281 15.6172C84.0703 15.3594 83.7578 15.2266 83.3984 15.2266C83.0391 15.2266 82.7266 15.3594 82.4688 15.6172C82.2109 15.8828 82.0859 16.1953 82.0859 16.5547ZM82.3359 27H84.4688V19.125H82.3359V27ZM86.1562 23.0625C86.1562 24.2656 86.5547 25.2578 87.3516 26.0547C88.1484 26.8516 89.125 27.2422 90.2969 27.2422C90.7969 27.2422 91.2656 27.1719 91.7031 27.0156C92.1328 26.8672 92.5 26.6641 92.7969 26.4062C93.0938 26.1484 93.3359 25.8672 93.5391 25.5547C93.7422 25.25 93.8828 24.9297 93.9766 24.5859L92.1016 23.9609C91.9922 24.3203 91.7891 24.6328 91.4922 24.8984C91.1875 25.1641 90.7891 25.2891 90.2969 25.2891C89.7266 25.2891 89.25 25.0938 88.8594 24.6953C88.4688 24.2969 88.2812 23.75 88.2812 23.0625C88.2812 22.375 88.4688 21.8359 88.8516 21.4453C89.2344 21.0547 89.7109 20.8594 90.2812 20.8594C90.7656 20.8594 91.1484 20.9922 91.4297 21.2422C91.7109 21.4922 91.9062 21.8125 92.0234 22.1875L93.9297 21.5469C93.8359 21.2031 93.6953 20.8828 93.5 20.5703C93.3047 20.2656 93.0625 19.9844 92.7656 19.7266C92.4688 19.4766 92.1016 19.2734 91.6641 19.1172C91.2266 18.9688 90.75 18.8906 90.2344 18.8906C89.0781 18.8906 88.1094 19.2891 87.3281 20.0781C86.5469 20.8672 86.1562 21.8594 86.1562 23.0625ZM95.2891 16.5547C95.2891 16.9141 95.4141 17.2188 95.6719 17.4688C95.9297 17.7266 96.2422 17.8516 96.6016 17.8516C96.9609 17.8516 97.2734 17.7266 97.5312 17.4688C97.7812 17.2188 97.9141 16.9141 97.9141 16.5547C97.9141 16.1875 97.7812 15.875 97.5312 15.6172C97.2734 15.3594 96.9609 15.2266 96.6016 15.2266C96.2422 15.2266 95.9297 15.3594 95.6719 15.6172C95.4141 15.8828 95.2891 16.1953 95.2891 16.5547ZM95.5391 27H97.6719V19.125H95.5391V27ZM99.3594 23.0625C99.3594 24.2656 99.75 25.2656 100.539 26.0547C101.32 26.8516 102.305 27.2422 103.484 27.2422C104.656 27.2422 105.641 26.8516 106.43 26.0547C107.211 25.2656 107.609 24.2656 107.609 23.0625C107.609 21.8594 107.211 20.8594 106.43 20.0703C105.648 19.2891 104.664 18.8906 103.484 18.8906C102.297 18.8906 101.312 19.2891 100.531 20.0703C99.75 20.8594 99.3594 21.8594 99.3594 23.0625ZM101.484 23.0625C101.484 22.3594 101.672 21.8047 102.062 21.4141C102.453 21.0234 102.922 20.8203 103.484 20.8203C104.039 20.8203 104.508 21.0234 104.898 21.4141C105.289 21.8047 105.484 22.3594 105.484 23.0625C105.484 23.7734 105.289 24.3281 104.898 24.7188C104.508 25.1094 104.039 25.3047 103.484 25.3047C102.93 25.3047 102.461 25.1094 102.07 24.7109C101.68 24.3125 101.484 23.7656 101.484 23.0625ZM109.289 27H111.422V22.4688C111.422 22 111.547 21.6172 111.812 21.3047C112.078 21 112.438 20.8438 112.891 20.8438C113.375 20.8438 113.742 20.9922 113.984 21.2734C114.227 21.5625 114.352 21.9375 114.352 22.4062V27H116.477V22.0391C116.477 21.125 116.234 20.375 115.75 19.7969C115.266 19.2188 114.555 18.9219 113.625 18.9219C113.172 18.9219 112.734 19.0234 112.32 19.2266C111.906 19.4297 111.586 19.7188 111.359 20.1016V19.125H109.289V27ZM118.156 24.8594C118.156 25.5078 118.398 26.0625 118.898 26.5312C119.398 27 120.047 27.2266 120.859 27.2266C121.406 27.2266 121.875 27.1172 122.266 26.8984C122.656 26.6797 122.961 26.3984 123.18 26.0547C123.18 26.4531 123.203 26.7656 123.258 27H125.211C125.148 26.6406 125.117 26.2188 125.117 25.75V21.8828C125.117 21.4766 125.047 21.0938 124.922 20.7422C124.797 20.3984 124.602 20.0781 124.344 19.7969C124.078 19.5156 123.727 19.2969 123.273 19.1328C122.82 18.9766 122.297 18.8906 121.695 18.8906C121.188 18.8906 120.719 18.9688 120.297 19.1172C119.875 19.2734 119.523 19.4766 119.25 19.7266C118.977 19.9766 118.758 20.2578 118.602 20.5547C118.438 20.8516 118.344 21.1641 118.312 21.4766L120.203 21.8828C120.234 21.5234 120.383 21.2188 120.648 20.9688C120.914 20.7266 121.266 20.6016 121.711 20.6016C122.141 20.6016 122.469 20.7031 122.695 20.8906C122.922 21.0859 123.039 21.3281 123.039 21.625C123.039 21.9453 122.836 22.1328 122.445 22.1875L120.508 22.4688C119.805 22.5781 119.242 22.8359 118.805 23.2422C118.367 23.6484 118.156 24.1875 118.156 24.8594ZM120.281 24.7266C120.281 24.4375 120.367 24.2109 120.547 24.0469C120.727 23.8828 120.961 23.7812 121.258 23.7344L123.039 23.4609V23.8125C123.039 24.4609 122.875 24.9297 122.547 25.2109C122.219 25.5 121.805 25.6406 121.305 25.6406C120.977 25.6406 120.727 25.5547 120.547 25.375C120.367 25.1953 120.281 24.9766 120.281 24.7266ZM127.258 27H129.391V23.3984C129.391 22.9922 129.438 22.6406 129.547 22.3438C129.656 22.0469 129.805 21.8203 130 21.6562C130.195 21.4922 130.406 21.375 130.641 21.2969C130.875 21.2188 131.133 21.1797 131.422 21.1797C131.633 21.1797 131.844 21.2031 132.062 21.2422V19.0938C131.852 19.0781 131.688 19.0625 131.562 19.0625C131.367 19.0625 131.172 19.0859 130.984 19.1172C130.797 19.1484 130.594 19.2109 130.375 19.2891C130.156 19.3672 129.961 19.5 129.773 19.6719C129.586 19.8438 129.438 20.0547 129.328 20.2969V19.125H127.258V27Z" fill="white"/>
<path d="M30 10V30" stroke="white" stroke-width="4"/>
<path d="M20 20H40" stroke="white" stroke-width="4"/>
</svg>
