<svg width="26" height="25" viewBox="0 0 26 25" fill="none" xmlns="http://www.w3.org/2000/svg">
<path d="M13 13C16.866 13 20 10.0899 20 6.5C20 2.91015 16.866 0 13 0C9.13401 0 6 2.91015 6 6.5C6 10.0899 9.13401 13 13 13Z" fill="#636363"/>
<path d="M23.9997 20.3333C24.0188 22.3775 22.5427 23.1376 21.2793 23.9333C21.2793 23.9333 21.0068 25 19.7955 25C16.4627 25 9.76792 25 6.44079 25C0.999993 25 1 24.7835 1 20.7333C1 16.6832 6.72447 13 12.8708 13C19.0171 13 23.9997 16.2832 23.9997 20.3333Z" fill="#636363"/>
<path d="M20 25C23.3137 25 26 22.3137 26 19C26 15.6863 23.3137 13 20 13C16.6863 13 14 15.6863 14 19C14 22.3137 16.6863 25 20 25Z" fill="white"/>
<path d="M20.5591 18.4056H23V19.3962H20.5591V22H19.4409V19.3962H17V18.4056H19.4409V16H20.5591V18.4056Z" fill="#636363"/>
</svg>
