<svg width="25" height="25" viewBox="0 0 25 25" fill="none" xmlns="http://www.w3.org/2000/svg">
<path d="M15.7073 8.50587H18.2499V9.53775H15.7073V12.25H14.5425V9.53775H11.9999V8.50587H14.5425V6H15.7073V8.50587Z" fill="#636363"/>
<path fill-rule="evenodd" clip-rule="evenodd" d="M6.05661 4C5.74429 4 5.4499 4.14592 5.26079 4.39448L2.21733 8.39448C1.94511 8.75226 1.94511 9.24774 2.21734 9.60552L5.26079 13.6055C5.4499 13.8541 5.74429 14 6.05661 14H19.4999C20.0522 14 20.4999 13.5523 20.4999 13V5C20.4999 4.44772 20.0522 4 19.4999 4H6.05661ZM3.66914 3.18343C4.23649 2.43777 5.11965 2 6.05661 2H19.4999C21.1567 2 22.4999 3.34315 22.4999 5V13C22.4999 14.6569 21.1567 16 19.4999 16H6.05661C5.11965 16 4.23649 15.5622 3.66914 14.8166L0.625692 10.8166C-0.190985 9.74321 -0.190986 8.25679 0.625692 7.18343L3.66914 3.18343Z" fill="#636363"/>
<path d="M23 19.9999C23 20.5522 22.5523 20.9999 22 20.9999H8.55673C8.24441 20.9999 7.95002 20.854 7.76091 20.6055L4.71746 16.6055C4.6126 16.4677 4.54814 16.3094 4.52406 16.1465C4.03822 15.9098 3.60734 15.5608 3.27138 15.1193L2.86655 14.5872C2.32095 15.6084 2.40737 16.8723 3.12581 17.8165L6.16926 21.8165C6.73661 22.5622 7.61977 22.9999 8.55673 22.9999H22C23.6569 22.9999 25 21.6568 25 19.9999V11.9999C25 10.6937 24.1652 9.58249 23 9.17065V19.9999Z" fill="#636363"/>
<rect opacity="0.01" width="24.9867" height="25" fill="#C4C4C4"/>
<circle cx="5" cy="9" r="1" fill="#636363"/>
</svg>
